<svg xmlns="http://www.w3.org/2000/svg" xmlns:xlink="http://www.w3.org/1999/xlink" width="61" height="61" viewBox="0 0 61 61"><defs><clipPath id="a"><rect width="61" height="61" transform="translate(1641 209)" fill="#fff" stroke="#707070" stroke-width="1"/></clipPath></defs><g transform="translate(-1641 -209)" clip-path="url(#a)"><g transform="translate(1641 209)"><path d="M30.5,15.222A15.28,15.28,0,1,0,45.778,30.5,15.3,15.3,0,0,0,30.5,15.222Z" fill="#fff"/><path d="M30.5,10.73a2.981,2.981,0,0,1-2.981-2.98V2.981a2.981,2.981,0,0,1,5.962,0v4.77A2.982,2.982,0,0,1,30.5,10.73Z" fill="#fff"/><path d="M30.5,50.268a2.981,2.981,0,0,0-2.981,2.981v4.768a2.981,2.981,0,1,0,5.962,0V53.249A2.982,2.982,0,0,0,30.5,50.268Z" fill="#fff"/><path d="M44.478,16.521a2.983,2.983,0,0,1,0-4.216L47.85,8.933a2.981,2.981,0,0,1,4.216,4.216l-3.373,3.373A2.981,2.981,0,0,1,44.478,16.521Z" fill="#fff"/><path d="M16.521,44.48a2.978,2.978,0,0,0-4.216,0L8.933,47.852a2.981,2.981,0,0,0,4.216,4.216l3.373-3.374A2.977,2.977,0,0,0,16.521,44.48Z" fill="#fff"/><path d="M50.268,30.5a2.981,2.981,0,0,1,2.981-2.981h4.77a2.98,2.98,0,1,1,0,5.961h-4.77A2.98,2.98,0,0,1,50.268,30.5Z" fill="#fff"/><path d="M10.73,30.5a2.981,2.981,0,0,0-2.981-2.981H2.981a2.98,2.98,0,1,0,0,5.961h4.77A2.979,2.979,0,0,0,10.73,30.5Z" fill="#fff"/><path d="M44.478,44.48a2.983,2.983,0,0,1,4.216,0l3.373,3.373a2.98,2.98,0,0,1-4.216,4.214l-3.373-3.373A2.979,2.979,0,0,1,44.478,44.48Z" fill="#fff"/><path d="M16.521,16.521a2.981,2.981,0,0,0,0-4.216L13.148,8.934a2.98,2.98,0,0,0-4.216,4.214l3.373,3.373A2.978,2.978,0,0,0,16.521,16.521Z" fill="#fff"/></g></g></svg>